Coordinates
version=1
nRows=12
nColumns=46
inDegrees=yes

Units are S.I. units (second, meters, Newtons, ...)
Angles are in degrees.

endheader
time	pelvis_tilt	pelvis_list	pelvis_rotation	pelvis_tx	pelvis_ty	pelvis_tz	bb_angle	bb_tx	bb_ty	bb_tz	hip_flexion_r	hip_adduction_r	hip_rotation_r	knee_angle_r	knee_angle_r_beta	ankle_angle_r	subtalar_angle_r	mtp_angle_r	crank_angle_r	hip_flexion_l	hip_adduction_l	hip_rotation_l	knee_angle_l	knee_angle_l_beta	ankle_angle_l	subtalar_angle_l	mtp_angle_l	crank_angle_l	lumbar_extension	lumbar_bending	lumbar_rotation	arm_flex_r	arm_add_r	arm_rot_r	elbow_flex_r	pro_sup_r	wrist_flex_r	wrist_dev_r	arm_flex_l	arm_add_l	arm_rot_l	elbow_flex_l	pro_sup_l	wrist_flex_l	wrist_dev_l
      2.50500000	    -14.51320391	      6.29519889	      1.27106344	      0.33538045	      1.18984198	     -0.22184406	      0.00000000	      0.50000000	      0.00000000	      0.25000000	     40.24107882	    -12.44557329	     -4.07080081	     44.59761229	      0.77837517	      2.87725493	      1.02882755	      0.00000000	      0.00000000	     61.69542067	    -14.11737660	     -5.94373108	    104.46896410	      1.82332739	     -1.28732322	     13.56911450	      0.00000000	      0.00000000	    -50.01335633	     -2.11845786	     -7.51450219	     69.17848339	      0.93239871	     31.36002091	     24.89372979	     37.60266788	      0.00000000	      0.00000000	     75.43093506	     -8.94953744	     68.66128677	     12.53546977	     40.55523806	      0.00000000	      0.00000000
      2.51000000	    -14.46813211	      6.45589260	      1.52788575	      0.33621911	      1.19032181	     -0.22195808	      0.00000000	      0.50000000	      0.00000000	      0.25000000	     39.45628611	    -12.70407600	     -4.27344828	     43.78693249	      0.76422614	      2.39184133	      1.15003875	      0.00000000	      0.00000000	     62.02615433	    -13.91046738	     -5.93610548	    104.81691332	      1.82940025	     -2.87624048	     14.43589483	      0.00000000	      0.00000000	    -50.13637968	     -2.13224850	     -7.89870917	     69.61684842	      0.51755304	     34.85233888	     23.93676548	     38.50130819	      0.00000000	      0.00000000	     75.87844658	    -10.34142320	     72.81928110	     13.62475304	     43.16787742	      0.00000000	      0.00000000
      2.51500000	    -14.59178050	      6.63922208	      1.68577132	      0.33713429	      1.19056765	     -0.22191953	      0.00000000	      0.50000000	      0.00000000	      0.25000000	     38.87642588	    -12.87701061	     -4.29126635	     42.97122135	      0.74998930	      1.92662633	      1.27238505	      0.00000000	      0.00000000	     62.49847915	    -13.86197901	     -6.01822538	    105.31721938	      1.83813224	     -1.09792258	     14.28214648	      0.00000000	      0.00000000	    -50.07036001	     -2.30342043	     -8.01245590	     69.48819818	      0.42865831	     34.82937631	     23.92917765	     38.49597768	      0.00000000	      0.00000000	     75.90764587	    -10.23751520	     72.87577278	     13.64094279	     43.19191430	      0.00000000	      0.00000000
      2.52000000	    -14.47572911	      6.67395171	      1.89635721	      0.33809771	      1.19135081	     -0.22175819	      0.00000000	      0.50000000	      0.00000000	      0.25000000	     37.93743257	    -12.98295911	     -4.65143076	     42.06911897	      0.73424464	      1.29372296	      1.26036281	      0.00000000	      0.00000000	     62.74165974	    -13.83788754	     -5.87380452	    105.72663255	      1.84527785	     -0.31568752	     14.77735254	      0.00000000	      0.00000000	    -50.30733119	     -2.36658636	     -7.94223852	     69.33488209	     -0.01035108	     34.88076333	     24.31911151	     38.65339429	      0.00000000	      0.00000000	     76.20314371	     -9.95612616	     74.44378860	     13.22126031	     43.87716087	      0.00000000	      0.00000000
      2.52500000	    -14.65281727	      6.86748648	      2.09040464	      0.33897128	      1.19175886	     -0.22167490	      0.00000000	      0.50000000	      0.00000000	      0.25000000	     37.36496197	    -13.17677584	     -4.76068420	     41.18556939	      0.71882379	      0.76961582	      1.34733490	      0.00000000	      0.00000000	     63.22709003	    -13.77000268	     -5.97847743	    106.13976690	      1.85248840	      1.01393683	     14.37350585	      0.00000000	      0.00000000	    -50.22303044	     -2.57181711	     -8.11438188	     69.24202202	     -0.06846196	     34.86341717	     24.23660594	     38.63582205	      0.00000000	      0.00000000	     76.24043242	     -9.87142620	     74.45999229	     13.28607908	     43.90068861	      0.00000000	      0.00000000
      2.53000000	    -14.73683581	      7.00968404	      2.34640280	      0.33982833	      1.19258093	     -0.22170263	      0.00000000	      0.50000000	      0.00000000	      0.25000000	     36.65402210	    -13.41943428	     -5.14128733	     40.26402186	      0.70273975	      0.03473216	      1.39267522	      0.00000000	      0.00000000	     63.61755471	    -13.61428495	     -6.02380796	    106.45245115	      1.85794577	      1.68454407	     14.43072102	      0.00000000	      0.00000000	    -50.27217332	     -2.66629433	     -8.30318173	     69.19277464	     -0.14240029	     34.83895794	     24.13046784	     38.61116707	      0.00000000	      0.00000000	     76.24907719	     -9.74159539	     74.49135473	     13.35959307	     43.93388466	      0.00000000	      0.00000000
      2.53500000	    -14.65105343	      7.10996137	      2.71400032	      0.34062286	      1.19397608	     -0.22185453	      0.00000000	      0.50000000	      0.00000000	      0.25000000	     35.63678926	    -13.66077255	     -5.62349488	     39.20336548	      0.68422781	     -0.70564666	      1.39159969	      0.00000000	      0.00000000	     63.83421276	    -13.29726288	     -5.93570066	    106.67309407	      1.86179671	      2.28438171	     14.81625186	      0.00000000	      0.00000000	    -50.55501510	     -2.62373839	     -8.49536517	     69.31425950	     -0.17400599	     34.80461795	     23.94132867	     38.56051631	      0.00000000	      0.00000000	     76.40201232	     -9.61564554	     74.53882946	     13.39221579	     43.99121692	      0.00000000	      0.00000000
      2.54000000	    -14.91733089	      7.31778056	      2.91143411	      0.34130434	      1.19481821	     -0.22172384	      0.00000000	      0.50000000	      0.00000000	      0.25000000	     35.13642203	    -13.88716255	     -5.79368900	     38.27258950	      0.66798270	     -1.29235818	      1.63345206	      0.00000000	      0.00000000	     64.35971607	    -13.15330429	     -6.12747985	    106.89815214	      1.86572472	      2.73925125	     14.88704536	      0.00000000	      0.00000000	    -50.47898439	     -2.87073736	     -8.71609122	     69.30045270	     -0.20338291	     34.80087662	     23.85288221	     38.54309565	      0.00000000	      0.00000000	     76.53291144	     -9.50942626	     74.54903260	     13.43658245	     44.00636253	      0.00000000	      0.00000000
      2.54500000	    -15.10769274	      7.48919936	      3.17810476	      0.34199161	      1.19606862	     -0.22173232	      0.00000000	      0.50000000	      0.00000000	      0.25000000	     34.48902383	    -14.15040195	     -6.15747448	     37.25212274	      0.65017220	     -2.13446248	      1.88895986	      0.00000000	      0.00000000	     64.77812072	    -12.90650257	     -6.23414798	    107.04919693	      1.86836095	      3.32488325	     15.00437553	      0.00000000	      0.00000000	    -50.47266904	     -2.98516009	     -8.89738101	     69.28193208	     -0.25229576	     34.79363025	     23.70590916	     38.51446595	      0.00000000	      0.00000000	     76.59542780	     -9.37972512	     74.57651692	     13.47308197	     44.02922990	      0.00000000	      0.00000000
      2.55000000	    -15.00899399	      7.56914599	      3.54197159	      0.34275313	      1.19801435	     -0.22189611	      0.00000000	      0.50000000	      0.00000000	      0.25000000	     33.40386378	    -14.38834884	     -6.82693670	     36.11596132	      0.63034244	     -3.02320737	      1.96714816	      0.00000000	      0.00000000	     64.90231368	    -12.61317398	     -6.20358124	    107.14174909	      1.86997629	      3.93123541	     15.30407376	      0.00000000	      0.00000000	    -50.82253217	     -2.95865419	     -9.07739843	     69.45884773	     -0.33457605	     34.77849603	     23.39965020	     38.44796007	      0.00000000	      0.00000000	     76.82537166	     -9.11087375	     74.63452790	     13.42444178	     44.06667082	      0.00000000	      0.00000000
      2.55500000	    -15.32824074	      7.75019222	      3.73060316	      0.34313814	      1.19936531	     -0.22165642	      0.00000000	      0.50000000	      0.00000000	      0.25000000	     32.93522496	    -14.55573910	     -6.94412562	     35.12380323	      0.61302601	     -3.73472157	      2.27169202	      0.00000000	      0.00000000	     65.42829117	    -12.38958632	     -6.34300386	    107.17902213	      1.87062683	      4.44027252	     15.30644227	      0.00000000	      0.00000000	    -50.76794741	     -3.18001585	     -9.23648238	     69.52534740	     -0.32160359	     34.78224070	     23.27254824	     38.42302749	      0.00000000	      0.00000000	     76.96425337	     -9.01826755	     74.64683025	     13.42625151	     44.07797329	      0.00000000	      0.00000000
      2.56000000	    -15.24702734	      7.81872142	      4.05849665	      0.34376743	      1.20168641	     -0.22164897	      0.00000000	      0.50000000	      0.00000000	      0.25000000	     31.84426897	    -14.73181136	     -7.64648976	     33.90458726	      0.59174668	     -4.82503272	      2.30917703	      0.00000000	      0.00000000	     65.53597958	    -12.08833633	     -6.30306378	    107.16134571	      1.87031831	      5.02021622	     15.55742658	      0.00000000	      0.00000000	    -51.14850846	     -3.15797966	     -9.41666659	     69.80787466	     -0.23740479	     34.79373180	     22.72497083	     38.31167764	      0.00000000	      0.00000000	     77.19702941	     -8.79933446	     74.71518233	     13.28305926	     44.12008522	      0.00000000	      0.00000000
